<?xml version="1.0" encoding="utf-8"?>
<!-- Generator: Adobe Illustrator 21.0.0, SVG Export Plug-In . SVG Version: 6.00 Build 0)  -->
<svg version="1.1" id="图层_1" xmlns="http://www.w3.org/2000/svg" xmlns:xlink="http://www.w3.org/1999/xlink" x="0px" y="0px"
	 viewBox="0 0 100 100" style="enable-background:new 0 0 100 100;" xml:space="preserve">
<style type="text/css">
	.st0{fill:url(#SVGID_1_);}
	.st1{fill:#FFFFFF;}
	.st2{fill:#C1DEFA;}
	.st3{fill:#1A1A1A;}
</style>
<title>wordpress</title>
<g>
	
		<linearGradient id="SVGID_1_" gradientUnits="userSpaceOnUse" x1="-9.1507" y1="84.1504" x2="109.1507" y2="15.8496" gradientTransform="matrix(1 0 0 -1 0 100)">
		<stop  offset="0" style="stop-color:#00BCFF"/>
		<stop  offset="0.9" style="stop-color:#055FFF"/>
	</linearGradient>
	<rect class="st0" width="100" height="100"/>
	<g>
		<path class="st1" d="M0.8,99.2V65.1c4.7,1.9,24.1,9.4,49.2,9.4c25.9,0,44.7-7.4,49.2-9.4v34.1H0.8z"/>
		<path class="st2" d="M1.5,66.3c6.1,2.5,24.5,9,48.5,9c24.7,0,42.5-6.5,48.5-9v32.2h-97V66.3 M100,64c0,0-20,9.8-50,9.8
			C21,73.8,0,64,0,64v36h100V64L100,64z"/>
	</g>
	<g>
		<path class="st1" d="M57.5,19.1h1.3c2.5,0,4.7,1.4,5.9,3.5H74c-1.5-7.2-7.8-12.4-15.1-12.4h-1.3L57.5,19.1z"/>
		<path class="st1" d="M35.3,22.7c1.1-2.2,3.4-3.5,5.9-3.5h1.3v-8.8h-1.3c-7.3,0-13.7,5.2-15.1,12.4H35.3z"/>
		<path class="st1" d="M58.8,32.4H41.2c-2.5,0-4.7-1.4-5.9-3.5H26c1.5,7.2,7.8,12.4,15.1,12.4h17.7c2.5,0,4.7,1.4,5.9,3.5H74
			C72.5,37.5,66.2,32.4,58.8,32.4z"/>
		<path class="st1" d="M42.5,54.5h-1.3c-2.5,0-4.7-1.4-5.9-3.5H26c1.5,7.2,7.8,12.4,15.1,12.4h1.3L42.5,54.5z"/>
		<path class="st1" d="M64.7,50.9c-1.1,2.2-3.4,3.5-5.9,3.5h-1.3v8.8h1.3c7.3,0,13.7-5.2,15.1-12.4H64.7z"/>
	</g>
	<g>
		<path class="st3" d="M11.1,80.4h2.2l1.1,6.3c0.2,0.9,0.4,2.5,0.5,3.4h0.1c0.1-0.9,0.4-2.4,0.5-3.4l1.1-6H19l1.1,6
			c0.2,1,0.4,2.5,0.5,3.4h0.1c0.1-0.9,0.4-2.5,0.5-3.4l1.1-6.3h2.2l-2.8,12.3h-2.3l-1-4.7c-0.3-1.3-0.5-2.7-0.6-4h-0.1
			c-0.1,1.3-0.3,2.7-0.6,4l-1,4.7h-2.4L11.1,80.4z"/>
		<path class="st3" d="M25.5,89.4v-2.5c0-2.3,1.3-3.6,3.4-3.6s3.4,1.3,3.4,3.6v2.5c0,2.3-1.2,3.6-3.4,3.6S25.5,91.7,25.5,89.4z
			 M30.1,89.4v-2.5c0-1.1-0.5-1.6-1.3-1.6s-1.2,0.5-1.2,1.6v2.5c0,1.1,0.5,1.6,1.2,1.6C29.7,91,30.2,90.5,30.1,89.4L30.1,89.4z"/>
		<path class="st3" d="M39.3,83.4v2c-0.4-0.2-0.8-0.2-1.1-0.2c-1.1,0-1.7,0.7-1.7,2v5.5h-2.1v-9.3h1.4l0.2,1.1
			c0.5-0.9,1.4-1.4,2.4-1.3C38.6,83.2,39,83.3,39.3,83.4z"/>
		<path class="st3" d="M47.5,80v12.8H46l-0.1-0.9c-0.5,0.6-1.3,1-2.1,1.1c-1.8,0-3-1.4-3-3.6v-2.5c0-2.2,1.2-3.6,3-3.6
			c0.6,0,1.1,0.2,1.6,0.6V80H47.5z M45.5,86.9c0-1.1-0.5-1.6-1.2-1.6S43,85.7,43,86.9v2.5c0,1.1,0.4,1.7,1.2,1.7s1.2-0.6,1.2-1.7
			V86.9z"/>
		<path class="st3" d="M57.2,84.5c0,2.6-1.5,4.1-4,4.1H52v4.1h-2.2V80.4h3.4C55.7,80.4,57.2,81.9,57.2,84.5z M55,84.5
			c0-1.4-0.6-2-1.7-2H52v4.1h1.2C54.4,86.6,55,85.9,55,84.5L55,84.5z"/>
		<path class="st3" d="M64.1,83.4v2c-0.4-0.1-0.7-0.2-1.1-0.2c-1.1,0-1.7,0.7-1.7,2v5.5h-2.1v-9.3h1.4l0.2,1.1
			c0.5-0.9,1.4-1.4,2.4-1.3C63.4,83.2,63.8,83.3,64.1,83.4z"/>
		<path class="st3" d="M72.3,89.8c0,1.8-1.4,3.2-3.2,3.2c-0.1,0-0.2,0-0.2,0c-2,0-3.3-1.3-3.3-3.6v-2.6c0-2.2,1.2-3.5,3.3-3.5
			s3.3,1.3,3.3,3.5v2.1h-4.6v0.5c0,1.1,0.4,1.6,1.2,1.6c0.8,0,1.1-0.3,1.3-1.2L72.3,89.8z M67.7,86.7v0.6h2.5v-0.6
			c0-1.1-0.4-1.6-1.3-1.6S67.7,85.6,67.7,86.7L67.7,86.7z"/>
		<path class="st3" d="M74,89.8H76c0,0.7,0.5,1.2,1.2,1.3c0.1,0,0.1,0,0.2,0c0.8,0,1.2-0.4,1.2-0.9c0-1.7-4.5-1.1-4.5-4.3
			c0-1.7,1.2-2.7,3.1-2.7c1.7-0.1,3.1,1.1,3.2,2.8c0,0.1,0,0.2,0,0.2h-2c0-0.7-0.4-1.2-1.2-1.2c-0.8,0-1.1,0.3-1.1,0.8
			c0,1.5,4.5,0.9,4.5,4.3c0,1.7-1.2,2.8-3.2,2.8c-1.8,0.2-3.3-1.1-3.5-2.9C74,90,74,89.9,74,89.8z"/>
		<path class="st3" d="M82.2,89.8h2.1c0,0.7,0.5,1.2,1.2,1.3c0.1,0,0.1,0,0.2,0c0.8,0,1.2-0.4,1.2-0.9c0-1.7-4.5-1.1-4.5-4.3
			c0-1.7,1.2-2.7,3.1-2.7c1.7-0.1,3.1,1.1,3.2,2.8c0,0.1,0,0.2,0,0.3h-2c0-0.7-0.4-1.2-1.2-1.2c-0.8,0-1.1,0.3-1.1,0.8
			c0,1.5,4.5,0.9,4.5,4.3c0,1.7-1.2,2.8-3.2,2.8c-1.8,0.2-3.3-1.1-3.5-2.9C82.2,90,82.2,89.9,82.2,89.8z"/>
	</g>
</g>
</svg>
