<?xml version="1.0" encoding="UTF-8"?>
<svg width="160px" height="30px" viewBox="0 0 160 30" version="1.1" xmlns="http://www.w3.org/2000/svg" xmlns:xlink="http://www.w3.org/1999/xlink">
    <!-- Generator: Sketch 61.2 (89653) - https://sketch.com -->
    <title>logo-wechat</title>
    <desc>Created with Sketch.</desc>
    <defs>
        <polygon id="path-1" points="0.625 0.9232 11.99 0.9232 11.99 19.5692 0.625 19.5692"></polygon>
        <polygon id="path-3" points="0.9874 0 34.9894 0 34.9894 29.9999 0.9874 29.9999"></polygon>
    </defs>
    <g id="页面-3" stroke="none" stroke-width="1" fill="none" fill-rule="evenodd">
        <g id="logo-wechat" transform="translate(-1.000000, 0.000000)">
            <g id="编组">
                <path d="M59.7079,15.8802 C59.5859,16.3162 59.4659,16.7392 59.3499,17.1522 C58.8949,18.7622 58.4959,20.1712 58.1869,21.5872 C57.8819,19.8892 57.3599,17.8932 56.8059,15.8272 L54.1479,5.8092 L52.7709,5.8092 L49.8499,15.9022 C49.1809,18.0812 48.5999,20.0262 48.2869,21.6032 C47.9899,20.2322 47.5689,18.5682 47.1239,16.8172 L44.2889,5.8092 L42.7729,5.8092 L47.5219,23.7932 L48.8739,23.7932 L51.9279,13.4872 C52.6569,11.0812 53.1279,9.4212 53.4239,7.9352 C53.6819,9.5262 54.1049,11.2112 54.7249,13.4842 L57.4089,23.7932 L58.7849,23.7932 L64.1759,5.8092 L62.6579,5.8092 L59.7079,15.8802 Z" id="Fill-35" fill="#504F4F" fill-rule="nonzero"></path>
                <path d="M69.7807,11.9046 C70.8277,11.9046 71.6737,12.2246 72.2947,12.8536 C73.3057,13.8816 73.4397,15.4066 73.4427,16.1176 L65.6587,16.1176 C65.9367,14.1456 67.1697,11.9046 69.7807,11.9046 L69.7807,11.9046 Z M73.6417,22.1186 C72.9047,22.4606 71.9727,22.7596 70.3077,22.7596 C67.3417,22.7596 65.6267,20.7856 65.5927,17.3356 L74.9027,17.3356 L74.9217,17.2506 C74.9767,17.0026 74.9767,16.8086 74.9767,16.4626 C74.9767,15.9846 74.9097,14.3136 74.0487,12.8656 C73.1687,11.3836 71.7857,10.6336 69.9387,10.6336 C66.4677,10.6336 64.1367,13.4306 64.1367,17.5956 C64.1367,21.4606 66.5527,24.0576 70.1497,24.0576 C72.4407,24.0576 73.7337,23.4756 74.1827,23.2266 L74.2567,23.1846 L73.6417,22.1186 Z" id="Fill-37" fill="#504F4F" fill-rule="nonzero"></path>
                <path d="M85.9384,22.7601 C81.3014,22.7601 78.5334,19.8341 78.5334,14.9341 C78.5334,9.8511 81.3804,6.8171 86.1484,6.8171 C87.4724,6.8171 88.7144,7.0661 89.6724,7.5161 L90.3434,6.3541 L90.2884,6.3231 C89.9434,6.1351 88.6304,5.5201 86.1234,5.5201 C80.6664,5.5201 76.9994,9.2911 76.9994,14.9071 C76.9994,21.6601 81.5874,24.0571 85.5174,24.0571 C87.7514,24.0571 89.4844,23.5881 90.3634,23.1501 L90.4294,23.1161 L89.7874,22.0021 C88.7574,22.4781 87.3334,22.7601 85.9384,22.7601" id="Fill-39" fill="#504F4F" fill-rule="nonzero"></path>
                <path d="M98.4882,10.6341 C97.5462,10.6341 96.6412,10.8951 95.8772,11.3861 C95.2472,11.7461 94.6752,12.3171 94.2722,12.9801 L94.2722,5.5191 L92.7912,5.5191 L92.7912,23.7931 L94.2722,23.7931 L94.2722,15.9611 C94.2722,15.4491 94.2972,15.1171 94.4252,14.7321 C95.0072,13.0971 96.5362,11.9571 98.1452,11.9571 C101.0792,11.9571 101.5172,14.6141 101.5172,16.1981 L101.5172,23.7931 L102.9992,23.7931 L102.9992,16.0681 C102.9992,10.8971 99.2412,10.6341 98.4882,10.6341" id="Fill-41" fill="#504F4F" fill-rule="nonzero"></path>
                <path d="M122.0487,22.6859 C121.7897,22.7409 121.4267,22.7879 120.9297,22.7879 C119.7437,22.7879 119.1917,21.9929 119.1917,20.2849 L119.1917,12.1669 L122.8037,12.1669 L122.8037,10.9239 L119.1917,10.9239 L119.1917,8.0819 L117.7107,8.0819 L117.7107,10.9239 L115.5747,10.9239 L115.5747,12.1669 L117.7107,12.1669 L117.7107,20.0479 C117.7107,21.5109 117.9787,22.5259 118.5237,23.1469 C119.0047,23.7599 119.7807,24.0839 120.7717,24.0839 C121.4777,24.0839 122.0867,23.9739 122.5807,23.7579 L122.6507,23.7279 L122.0487,22.6859 Z" id="Fill-43" fill="#504F4F" fill-rule="nonzero"></path>
                <path d="M137.4589,10.8997 C137.4589,13.5957 135.6439,15.1407 132.4789,15.1407 C131.8099,15.1407 130.9679,15.1147 130.3189,14.9087 L130.3189,7.1387 C130.6279,7.0777 131.4299,6.9487 132.7159,6.9487 C135.7299,6.9487 137.4589,8.3887 137.4589,10.8997 M132.7689,5.6777 C131.4909,5.6777 130.1989,5.7937 128.9279,6.0207 L128.8379,6.0387 L128.8379,23.7937 L130.3189,23.7937 L130.3189,16.2347 C130.8989,16.3807 131.5429,16.4127 132.3739,16.4127 C134.6519,16.4127 136.5339,15.6967 137.6729,14.3997 C138.5259,13.4647 138.9409,12.2757 138.9409,10.7677 C138.9409,9.3027 138.4539,8.0727 137.5369,7.2117 C136.5049,6.2077 134.8579,5.6777 132.7689,5.6777" id="Fill-45" fill="#504F4F" fill-rule="nonzero"></path>
                <g transform="translate(149.000000, 10.000000)" id="Fill-47-Clipped">
                    <g>
                        <mask id="mask-2" fill="white">
                            <use xlink:href="#path-1"></use>
                        </mask>
                        <g id="path-4"></g>
                        <path d="M10.411,0.9232 L7.3,9.1922 C7.013,9.9392 6.769,10.6662 6.554,11.3092 C6.502,11.4632 6.453,11.6112 6.405,11.7552 C6.15,10.9312 5.838,10.0212 5.551,9.2702 L2.229,0.9902 L2.202,0.9232 L0.625,0.9232 L5.377,12.8032 C5.501,13.1132 5.527,13.2542 5.527,13.3172 C5.527,13.4322 5.474,13.5872 5.377,13.8282 C4.734,15.3572 3.889,16.3882 3.293,16.9832 C2.471,17.7762 1.576,18.1832 1.115,18.3572 L1.027,18.3892 L1.708,19.5692 C2.046,19.4412 2.89,19.0702 3.835,18.2752 C5.479,16.8392 6.532,14.6262 8.134,10.5102 L11.991,0.9232 L10.411,0.9232 Z" id="Fill-47" fill="#504F4F" fill-rule="nonzero" mask="url(#mask-2)"></path>
                    </g>
                </g>
                <path d="M112.8554,19.6253 C112.8554,19.8143 112.8344,20.0933 112.7294,20.3553 C112.3254,21.5443 111.1554,22.8133 109.0884,22.8133 C107.9714,22.8133 106.6664,22.1503 106.6664,20.2853 C106.6664,19.4893 106.9284,18.8293 107.4484,18.3233 C108.3464,17.4503 110.0014,17.0103 112.3744,17.0103 C112.5324,17.0103 112.6924,17.0123 112.8554,17.0163 L112.8554,19.6253 Z M114.5204,23.6683 C114.3594,22.6753 114.3374,21.6453 114.3374,20.6803 L114.3374,15.7253 C114.3374,12.3953 112.7864,10.6343 109.8524,10.6343 C108.5314,10.6343 107.1204,11.0453 106.0764,11.7323 L106.0714,11.7353 L106.6754,12.7813 C107.5034,12.2173 108.5804,11.9043 109.7214,11.9043 L109.7684,11.9043 C110.7044,11.9043 111.4374,12.1613 111.9484,12.6683 C112.5594,13.2713 112.8554,14.2033 112.8554,15.5133 L112.8554,15.7473 C109.7524,15.7213 107.5514,16.3553 106.2884,17.6083 C105.5214,18.3673 105.1314,19.3393 105.1314,20.4963 C105.1314,22.2243 106.3284,24.0843 108.9574,24.0843 C110.8704,24.0843 112.2644,23.0913 112.9854,22.1033 L113.1564,23.7943 L114.5404,23.7943 L114.5204,23.6683 Z" id="Fill-49" fill="#504F4F" fill-rule="nonzero"></path>
                <path d="M146.8529,19.6253 C146.8529,19.8143 146.8319,20.0933 146.7279,20.3553 C146.3229,21.5443 145.1529,22.8133 143.0859,22.8133 C141.9689,22.8133 140.6639,22.1503 140.6639,20.2853 C140.6639,19.4893 140.9259,18.8293 141.4459,18.3233 C142.3439,17.4503 143.9989,17.0103 146.3719,17.0103 C146.5289,17.0103 146.6899,17.0123 146.8529,17.0163 L146.8529,19.6253 Z M148.5179,23.6683 C148.3569,22.6753 148.3339,21.6453 148.3339,20.6803 L148.3339,15.7253 C148.3339,12.3953 146.7839,10.6343 143.8499,10.6343 C142.5889,10.6343 141.2499,11.0103 140.2229,11.6433 L140.8239,12.6833 C141.6309,12.1823 142.6449,11.9043 143.7199,11.9043 L143.7659,11.9043 C144.7009,11.9043 145.4349,12.1603 145.9459,12.6683 C146.5569,13.2713 146.8529,14.2033 146.8529,15.5133 L146.8529,15.7473 C143.7629,15.7213 141.5489,16.3553 140.2849,17.6083 C139.5189,18.3673 139.1289,19.3393 139.1289,20.4963 C139.1289,22.2243 140.3259,24.0843 142.9539,24.0843 C144.8669,24.0843 146.2609,23.0913 146.9809,22.1043 L147.1539,23.7943 L148.5379,23.7943 L148.5179,23.6683 Z" id="Fill-51" fill="#504F4F" fill-rule="nonzero"></path>
                <g id="Fill-53-Clipped">
                    <g>
                        <mask id="mask-4" fill="white">
                            <use xlink:href="#path-3"></use>
                        </mask>
                        <g id="path-6"></g>
                        <path d="M13.3544,18.9759 C13.2014,19.0539 13.0284,19.0989 12.8444,19.0989 C12.4194,19.0989 12.0494,18.8649 11.8554,18.5189 L11.7814,18.3559 L8.6864,11.5639 C8.6534,11.4899 8.6324,11.4069 8.6324,11.3259 C8.6324,11.0129 8.8854,10.7589 9.1984,10.7589 C9.3264,10.7589 9.4434,10.8009 9.5384,10.8719 L13.1894,13.4719 C13.4574,13.6469 13.7764,13.7489 14.1184,13.7489 C14.3234,13.7489 14.5194,13.7099 14.6994,13.6449 L31.8754,5.9999 C28.7974,2.3719 23.7274,-0.0001 17.9884,-0.0001 C8.5994,-0.0001 0.9874,6.3429 0.9874,14.1669 C0.9874,18.4369 3.2774,22.2799 6.8624,24.8759 C7.1494,25.0809 7.3374,25.4189 7.3374,25.7999 C7.3374,25.9249 7.3114,26.0409 7.2784,26.1609 C6.9924,27.2289 6.5344,28.9389 6.5124,29.0189 C6.4764,29.1529 6.4214,29.2919 6.4214,29.4329 C6.4214,29.7459 6.6744,29.9999 6.9874,29.9999 C7.1104,29.9999 7.2104,29.9539 7.3154,29.8939 L11.0374,27.7459 C11.3164,27.5839 11.6124,27.4829 11.9394,27.4829 C12.1134,27.4829 12.2814,27.5099 12.4384,27.5589 C14.1764,28.0579 16.0494,28.3349 17.9884,28.3349 C27.3774,28.3349 34.9894,21.9929 34.9894,14.1669 C34.9894,11.7969 34.2884,9.5659 33.0544,7.6029 L13.4784,18.9049 L13.3544,18.9759 Z" id="Fill-53" fill="#28A339" fill-rule="nonzero" mask="url(#mask-4)"></path>
                    </g>
                </g>
            </g>
        </g>
    </g>
</svg>