<?xml version="1.0" encoding="UTF-8"?>
<svg width="120px" height="36px" viewBox="0 0 120 36" version="1.1" xmlns="http://www.w3.org/2000/svg" xmlns:xlink="http://www.w3.org/1999/xlink">
    <!-- Generator: Sketch 61.2 (89653) - https://sketch.com -->
    <title>支付宝</title>
    <desc>Created with Sketch.</desc>
    <g id="页面-3" stroke="none" stroke-width="1" fill="none" fill-rule="evenodd">
        <g id="支付宝">
            <path d="M8.82,19.56 C7.55109954,19.6688548 6.3350545,20.1179623 5.3,20.86 C2.52,23.27 4.19,27.68 9.8,27.68 C13.06,27.68 16.32,25.6 18.88,22.27 C15.25,20.5 12.16,19.27 8.82,19.56 Z M29.77,22.56 C31.8365619,23.3526308 33.9678479,23.9649155 36.14,24.39 L36.14,5.77 C36.14,2.58331699 33.556683,0 30.37,0 L5.82,0 C2.63331699,0 0.05,2.58331699 0.05,5.77 L0.05,30.23 C0.05,33.416683 2.63331699,36 5.82,36 L30.36,36 C33.546683,36 36.13,33.416683 36.13,30.23 L36.13,30 C36.13,30 26.75,26.09 22,23.82 C18.82,27.72 14.72,30.09 10.46,30.09 C3.26,30.09 0.81,23.81 4.22,19.67 C5.27594462,18.5103286 6.67947601,17.7243511 8.22,17.43 C11.29,16.68 16.22,17.9 20.76,19.43 C21.6047511,17.8402065 22.2753071,16.1638167 22.76,14.43 L8.66,14.43 L8.66,13 L15.93,13 L15.93,10.45 L7.13,10.45 L7.13,9 L15.94,9 L15.94,5.39 C15.9371677,5.22561549 16.0019142,5.06727004 16.1191101,4.95196436 C16.236306,4.83665868 16.3956833,4.7744953 16.56,4.78 L20.12,4.78 L20.12,9 L28.83,9 L28.83,10.43 L20.12,10.43 L20.12,13 L27.23,13 C26.5927846,15.6587677 25.5827852,18.2140662 24.23,20.59 C26.39,21.37 28.33,22.11 29.77,22.59 L29.77,22.56 Z" id="形状" fill="#00A0E9"></path>
            <path d="M103.59,4.47 L115.29,4.47 L115.29,6.78 L119.470191,6.78 L119.470191,4 C119.481199,3.39074023 118.999143,2.88636634 118.39,2.87 L111.62,2.87 L111.62,0.74 L107.25,0.74 L107.25,2.89 L99.41,2.89 L99.41,6.78 L103.59,6.78 L103.59,4.47 Z M75.28,0.93 L71,11.07 L74.29,11.07 L74.29,23.13 L77.89,23.13 L77.89,7.13 L76.59,7.13 L79.3,0.93 L75.28,0.93 Z M118.64,18.14 C118.556892,17.8542051 118.29758,17.6556692 118,17.65 L114.52,17.65 L115.52,21.06 L111.43,21.06 L111.43,14.46 L119.43,14.46 L119.43,12.89 L111.43,12.89 L111.43,9.78 L119.43,9.78 L119.43,8.21 L99.41,8.21 L99.41,9.78 L107.41,9.78 L107.41,12.89 L99.41,12.89 L99.41,14.46 L107.41,14.46 L107.41,21.06 L99.41,21.06 L99.41,22.63 L119.95,22.63 L119.95,22.58 L119.95,22.58 L118.64,18.14 L118.64,18.14 Z M84.48,9.24 C84.342934,8.95522272 84.0560319,8.77300116 83.74,8.77 L80.62,8.77 L83,16.4 L86.68,16.4 L84.43,9.24 L84.48,9.24 Z" id="形状" fill="#3A3E39"></path>
            <path d="M92.35,1.12 L88.61,1.12 L88.61,5 L79.4,5 L79.4,6.59 L88.61,6.59 L88.61,20.59 C88.5855745,20.908987 88.3293524,21.1609387 88.01,21.18 L86.11,21.18 L86.11,22.81 L91,22.81 C91.7805465,22.7728015 92.39557,22.1314199 92.4,21.35 L92.4,6.59 L93.92,6.59 L93.92,5 L92.35,5 L92.35,1.12 Z M66.58,21.65 C63.7091129,20.6299487 60.9511685,19.3163227 58.35,17.73 C61.6622917,15.4519534 64.0801558,12.0938088 65.19,8.23 L58,8.23 L58,5.66 L66.32,5.66 L66.32,4.06 L58,4.06 L58,0.8 L54.3,0.8 C54.101082,0.802634556 53.9113598,0.884190184 53.7725791,1.02672172 C53.6337984,1.16925325 53.5573301,1.36108245 53.56,1.56 L53.56,4.06 L45.31,4.06 L45.31,5.66 L53.57,5.66 L53.57,8.22 L46.57,8.22 L46.57,9.82 L60.49,9.82 C60.49,9.82 59.72,12.82 55.91,16.06 C54.1075621,14.8188156 52.5596524,13.2437495 51.35,11.42 L47.62,11.42 C49.145417,13.9449679 51.1907183,16.1163961 53.62,17.79 C51.0077872,19.4423451 48.1723129,20.7119102 45.2,21.56 L45.2,23.48 C48.9862563,22.6572003 52.6225399,21.2539591 55.98,19.32 C59.3012691,21.2232642 62.8871761,22.6219028 66.62,23.47 L66.62,21.65 L66.58,21.65 Z M49.31,26.41 L45.89,35.71 L47.63,35.71 L48.27,33.84 L51.69,33.84 L52.31,35.71 L54,35.71 L50.58,26.41 L49.31,26.41 Z M48.69,32.66 L50,28.82 L51.28,32.67 L48.69,32.66 Z M63.36,26.41 L61.69,26.41 L61.69,35.71 L67.32,35.71 L67.32,34.45 L63.32,34.45 L63.32,26.45 L63.36,26.41 Z M75.59,26.41 L77.26,26.41 L77.26,35.71 L75.59,35.71 L75.59,26.41 L75.59,26.41 Z M89.8,26.41 L86.18,26.41 L86.18,35.71 L87.85,35.71 L87.85,32.13 L89.8,32.13 C90.8788771,32.2202991 91.9167584,31.6957902 92.4839674,30.773617 C93.0511764,29.8514437 93.0511764,28.6885563 92.4839674,27.766383 C91.9167584,26.8442098 90.8788771,26.3197009 89.8,26.41 L89.8,26.41 Z M89.71,30.86 L87.86,30.86 L87.86,27.68 L89.7,27.68 C90.1094623,27.6929494 90.4966284,27.8695649 90.7748095,28.1703012 C91.0529906,28.4710375 91.1989476,28.8707714 91.18,29.28 C91.2046551,29.6897232 91.0603312,30.0916511 90.7806681,30.3920999 C90.5010051,30.6925487 90.110437,30.8652683 89.7,30.87 L89.71,30.86 Z M102.44,26.41 L99,35.71 L100.74,35.71 L101.38,33.84 L104.8,33.84 L105.42,35.71 L107.16,35.71 L103.74,26.41 L102.44,26.41 Z M101.81,32.66 L103.14,28.81 L104.42,32.66 L101.81,32.66 Z M116.51,26.41 L114.68,30.41 L112.83,26.41 L111,26.41 L113.82,31.89 L113.82,35.71 L115.48,35.71 L115.48,31.87 L118.29,26.41 L116.51,26.41 Z" id="形状" fill="#3A3E39"></path>
        </g>
    </g>
</svg>