<?xml version="1.0" encoding="UTF-8"?>
<svg width="169px" height="36px" viewBox="0 0 169 36" version="1.1" xmlns="http://www.w3.org/2000/svg" xmlns:xlink="http://www.w3.org/1999/xlink">
    <!-- Generator: Sketch 61.2 (89653) - https://sketch.com -->
    <title>alipayhk</title>
    <desc>Created with Sketch.</desc>
    <g id="页面-3" stroke="none" stroke-width="1" fill="none" fill-rule="evenodd">
        <g id="alipayhk" fill-rule="nonzero">
            <g id="_编组_">
                <g id="_编组_2">
                    <g id="_编组_3">
                        <g id="_编组_4" transform="translate(41.000000, 5.000000)">
                            <g id="_编组_5" transform="translate(0.000000, 1.000000)" fill="#3E3A39">
                                <g id="_编组_6">
                                    <path d="M16.34,21 L21.34,21 L12,0.569990176 L10.63,0.569990176 C10.1686163,0.568130813 9.74773372,0.833130933 9.55,1.25 L0.09,21 L3.43,21 L5.12,17.66 L14.76,17.66 L16.34,21 Z M10,7.22 L14.1,16.05 L5.73,16.05 L10,7.22 Z" id="_复合路径_"></path>
                                    <path d="M27.81,21 L23.27,21 L23.27,1.45 C23.27,0.96398942 23.6639894,0.57 24.15,0.57 L27.81,0.57 L27.81,21 Z" id="_复合路径_2"></path>
                                    <path d="M31.8,6.82 C31.8,6.33398942 32.1939894,5.94 32.68,5.94 L36.37,5.94 L36.37,21 L31.8,21 L31.8,6.82 Z" id="_复合路径_3"></path>
                                    <path d="M40.19,6.83 C40.19,6.34398942 40.5839894,5.95 41.07,5.95 L44.78,5.95 L44.78,7.13 C45.3269696,6.68560051 45.9369716,6.32499162 46.59,6.06 C47.3481024,5.76523683 48.1567969,5.62252605 48.97,5.64 C49.8785166,5.62841645 50.7777995,5.82331808 51.6,6.21 C52.3646162,6.58172524 53.0452055,7.10577899 53.6,7.75 C54.1724172,8.41429942 54.6135562,9.18120258 54.9,10.01 C55.2088631,10.8868592 55.3644687,11.810345 55.36,12.74 C55.3717973,13.9021235 55.189283,15.058047 54.82,16.16 C54.4863177,17.156359 53.9596238,18.0772238 53.27,18.87 C52.5912214,19.6355385 51.7556366,20.246027 50.82,20.66 C49.8055377,21.1045624 48.7074775,21.3262205 47.6,21.31 C47.0791373,21.3137681 46.5584319,21.2904031 46.04,21.24 C45.6003394,21.1944467 45.1693727,21.086705 44.76,20.92 L44.76,26.92 L40.16,26.92 L40.19,6.83 Z M44.79,16.83 C44.7910396,17.1731639 44.8589735,17.5128335 44.99,17.83 C45.1235034,18.1469104 45.320952,18.4328704 45.57,18.67 C45.829559,18.9149397 46.1355889,19.1053583 46.47,19.23 C46.8409123,19.3680474 47.2342746,19.4358685 47.63,19.43 C48.0331061,19.4272344 48.4237531,19.2899801 48.74,19.04 C49.1160413,18.7441173 49.4260156,18.3728293 49.65,17.95 C49.9315249,17.4240624 50.1401084,16.8622327 50.27,16.28 C50.4291632,15.5881228 50.5063607,14.8799201 50.5,14.17 C50.5104553,13.3123885 50.4435173,12.4555824 50.3,11.61 C50.1942633,10.9704582 50.0025259,10.3481527 49.73,9.76 C49.5336798,9.32250049 49.2353442,8.93843628 48.86,8.64 C48.5404596,8.39851974 48.1505205,8.26854001 47.75,8.26998783 C47.4634,8.2706864 47.1791244,8.32144989 46.91,8.42 C46.6343068,8.52021586 46.3722638,8.65459687 46.13,8.82 C45.8739272,8.99583616 45.6360774,9.19683593 45.42,9.42 C45.1969645,9.6454037 44.9898025,9.88597893 44.8,10.14 L44.79,16.83 Z" id="_复合路径_4"></path>
                                    <path d="M67.23,6.11 C64.3427825,5.38936202 61.313429,5.472358 58.47,6.35 C58.59,6.73 58.76,7.4 58.88,7.79 C64.88,6.72 66.03,7.55 66.03,10.14 L66.03,11 C64.94,10.92 63.64,10.74 62.59,10.72 C61.1344698,10.6254941 59.7052308,11.1407774 58.6448656,12.1423388 C57.5845004,13.1439002 56.9886003,14.5414495 57,16 C57,19.61 60.43,23 66,20.48 L66,21 L70.68,21 L70.68,10 C70.72,7.87 68.88,6.58 67.23,6.11 Z M60.7,16 C60.7457905,14.2601839 62.1311135,12.8530104 63.87,12.78 C64.613218,12.6651093 65.3736958,12.7912715 66.04,13.14 L66.04,18.31 C65.1186625,19.1751829 63.7714206,19.4104002 62.6114194,18.9086019 C61.4514182,18.4068037 60.7003365,17.2638846 60.7,16 L60.7,16 Z" id="_复合路径_5"></path>
                                    <path d="M72,5.65990901 L76.85,5.65990901 L81.63,14.96 L85.56,6.26 C85.720981,5.89104692 86.0874929,5.65458764 86.49,5.65990901 L89,5.65990901 L81.4,22.44 C79.57,27.01 75.13,26.36 74.31,26.36 L74.31,23.83 C74.92,23.83 76.96,23.83 77.86,22.83 C78.0762885,22.5425412 78.2575655,22.2303418 78.4,21.9 L78.76,21.13 L79.29,19.92 L72,5.65990901 Z" id="_复合路径_6"></path>
                                </g>
                            </g>
                            <ellipse id="_路径_" fill="#009FE8" cx="34.07" cy="2.48" rx="2.47" ry="2.23"></ellipse>
                        </g>
                        <g id="_编组_7" fill="#00A0E9">
                            <path d="M22.12,23.82 C18.94,27.72 14.84,30.09 10.58,30.09 C3.38,30.09 0.93,23.8 4.34,19.67 C5.3940527,18.5060675 6.79794724,17.7163768 8.34,17.42 C11.41,16.67 16.34,17.89 20.88,19.42 C21.7247511,17.8302065 22.3953071,16.1538167 22.88,14.42 L8.77,14.42 L8.77,13 L16.05,13 L16.05,10.46 L7.23,10.46 L7.23,9 L16.05,9 L16.05,5.39 C16.0471677,5.22561549 16.1119142,5.06727004 16.2291101,4.95196436 C16.346306,4.83665868 16.5056833,4.7744953 16.67,4.78 L20.23,4.78 L20.23,9 L29,9 L29,10.43 L20.28,10.43 L20.28,13 L27.4,13 C26.7627846,15.6587677 25.7527852,18.2140662 24.4,20.59 C26.56,21.37 28.5,22.11 29.94,22.59 C32.0102273,23.3819067 34.1447707,23.9941661 36.32,24.42 L36.32,24.42 L36.32,5.77 C36.32,4.22573858 35.70127,2.74586132 34.6018206,1.66144707 C33.5023711,0.577032816 32.014113,-0.0214109109 30.47,1.11022302e-15 L5.94,1.11022302e-15 C4.40796897,-0.00265517042 2.93777656,0.604081443 1.85352787,1.68645426 C0.769279189,2.76882709 0.16,4.23796667 0.16,5.77 L0.16,30.23 C0.16,31.7620333 0.769279189,33.2311729 1.85352787,34.3135457 C2.93777656,35.3959186 4.40796897,36.0026552 5.94,36.0000087 L30.48,36.0000087 C32.012031,36.0026552 33.4822234,35.3959186 34.5664721,34.3135457 C35.6507208,33.2311729 36.2600023,31.7620333 36.26,30.23 L36.26,30 C36.26,30 26.87,26.09 22.12,23.82 Z" id="_路径_2"></path>
                            <path d="M8.93,19.56 C7.66120813,19.6693409 6.44528794,20.1184023 5.41,20.86 C2.63,23.27 4.29,27.68 9.91,27.68 C13.17,27.68 16.44,25.6 19,22.27 C15.35,20.5 12.26,19.23 8.93,19.56 Z" id="_路径_3"></path>
                        </g>
                    </g>
                </g>
            </g>
            <g id="_编组_8" transform="translate(161.000000, 5.000000)" fill="#009FE8">
                <polygon id="_复合路径_7" points="1.89 0.86 1.89 4.7 1.22 4.7 1.22 0.86 0 0.86 0 0.25 3.12 0.25 3.12 0.86"></polygon>
                <polygon id="_复合路径_8" points="7.13 4.7 7.13 1.7 6.13 3.87 5.63 3.87 4.63 1.7 4.63 4.7 3.96 4.7 3.96 0.25 4.63 0.25 5.85 3 7.12 0.24 7.79 0.24 7.79 4.7"></polygon>
            </g>
            <polygon id="路径" fill="#009FE8" points="146.11 27.54 143.76 27.54 143.76 20.54 136.33 20.54 136.33 27.54 134 27.54 134 11.94 136.35 11.94 136.35 18.48 143.78 18.48 143.78 11.94 146.13 11.94"></polygon>
            <polygon id="路径" fill="#009FE8" points="161.35 11.94 155.61 18.6 161.61 27.54 158.68 27.54 153.85 20.22 152.03 22.22 152.03 27.55 149.68 27.55 149.68 11.94 152.03 11.94 152.03 19.3 152.13 19.3 158.62 11.94"></polygon>
        </g>
    </g>
</svg>